
<svg width="662" height="118" viewBox="0 0 662 118" fill="none" xmlns="http://www.w3.org/2000/svg">
<g clip-path="url(#clip0_384_134)">
<g clip-path="url(#clip1_384_134)" filter="url(#filter0_f_384_134)">
<path d="M167.219 -8.11389H198.701C199.231 -8.11389 199.739 -7.9033 200.113 -7.52846C200.488 -7.15361 200.699 -6.64521 200.699 -6.11509V104.359C200.699 104.889 200.488 105.397 200.113 105.772C199.739 106.147 199.231 106.357 198.701 106.357H167.219C166.689 106.357 166.181 106.147 165.807 105.772C165.432 105.397 165.222 104.889 165.222 104.359V-6.11509C165.222 -6.64521 165.432 -7.15361 165.807 -7.52846C166.181 -7.9033 166.689 -8.11389 167.219 -8.11389Z" fill="#D5FFB3" fill-opacity="0.25"/>
<path d="M228.246 -8.11389H258.209C258.533 -8.11113 258.851 -8.02964 259.137 -7.87643C259.422 -7.72322 259.666 -7.50289 259.847 -7.23442L298.68 49.8513C298.919 50.2072 299.266 50.4767 299.67 50.6201C300.074 50.7636 300.513 50.7732 300.923 50.6478C301.332 50.5223 301.691 50.2684 301.945 49.9234C302.2 49.5784 302.337 49.1607 302.336 48.732V-6.11509C302.336 -6.64521 302.546 -7.15361 302.921 -7.52846C303.295 -7.9033 303.803 -8.11389 304.333 -8.11389H333.658C334.187 -8.11389 334.695 -7.9033 335.07 -7.52846C335.445 -7.15361 335.655 -6.64521 335.655 -6.11509V104.359C335.655 104.889 335.445 105.397 335.07 105.772C334.695 106.147 334.187 106.357 333.658 106.357H303.394C303.067 106.358 302.745 106.278 302.456 106.125C302.167 105.971 301.92 105.749 301.736 105.478L263.143 48.8519C262.904 48.4961 262.557 48.2265 262.153 48.0831C261.75 47.9397 261.31 47.93 260.901 48.0555C260.491 48.1809 260.132 48.4349 259.878 48.7799C259.624 49.1248 259.487 49.5425 259.488 49.9713V104.359C259.488 104.889 259.277 105.397 258.903 105.772C258.528 106.147 258.02 106.357 257.49 106.357H228.246C227.716 106.357 227.208 106.147 226.833 105.772C226.459 105.397 226.248 104.889 226.248 104.359V-6.11509C226.248 -6.64521 226.459 -7.15361 226.833 -7.52846C227.208 -7.9033 227.716 -8.11389 228.246 -8.11389Z" fill="#D5FFB3" fill-opacity="0.25"/>
<path d="M362.502 -8.11389H393.924C394.454 -8.11389 394.962 -7.9033 395.337 -7.52846C395.711 -7.15361 395.922 -6.64521 395.922 -6.11509V104.359C395.922 104.889 395.711 105.397 395.337 105.772C394.962 106.147 394.454 106.357 393.924 106.357H362.502C361.973 106.357 361.465 106.147 361.09 105.772C360.715 105.397 360.505 104.889 360.505 104.359V-6.11509C360.505 -6.64521 360.715 -7.15361 361.09 -7.52846C361.465 -7.9033 361.973 -8.11389 362.502 -8.11389Z" fill="#D5FFB3" fill-opacity="0.25"/>
<path d="M415.278 -8.11389H518.732C519.262 -8.11389 519.77 -7.9033 520.145 -7.52846C520.519 -7.15361 520.73 -6.64521 520.73 -6.11509V18.1503C520.73 18.6805 520.519 19.1889 520.145 19.5637C519.77 19.9386 519.262 20.1492 518.732 20.1492H486.771C486.241 20.1492 485.733 20.3597 485.358 20.7346C484.984 21.1094 484.773 21.6178 484.773 22.148V104.359C484.773 104.889 484.563 105.397 484.188 105.772C483.814 106.147 483.306 106.357 482.776 106.357H451.414C450.884 106.357 450.376 106.147 450.001 105.772C449.627 105.397 449.416 104.889 449.416 104.359V22.148C449.416 21.6178 449.206 21.1094 448.831 20.7346C448.457 20.3597 447.949 20.1492 447.419 20.1492H415.278C414.748 20.1492 414.24 19.9386 413.865 19.5637C413.491 19.1889 413.28 18.6805 413.28 18.1503V-6.11509C413.28 -6.64521 413.491 -7.15361 413.865 -7.52846C414.24 -7.9033 414.748 -8.11389 415.278 -8.11389Z" fill="#D5FFB3" fill-opacity="0.25"/>
</g>
<path d="M187.876 0.178711H215.342C215.804 0.178711 216.248 0.362395 216.574 0.689355C216.901 1.01631 217.085 1.45977 217.085 1.92216V98.2825C217.085 98.7449 216.901 99.1883 216.574 99.5153C216.248 99.8423 215.804 100.026 215.342 100.026H187.876C187.413 100.026 186.97 99.8423 186.643 99.5153C186.316 99.1883 186.133 98.7449 186.133 98.2825V1.92216C186.133 1.45977 186.316 1.01631 186.643 0.689355C186.97 0.362395 187.413 0.178711 187.876 0.178711Z" fill="#73BB3A"/>
<path d="M241.119 0.178711H267.261C267.543 0.181118 267.821 0.252202 268.07 0.385839C268.319 0.519475 268.532 0.711657 268.69 0.945828L302.57 50.7387C302.778 51.0491 303.081 51.2842 303.433 51.4093C303.786 51.5344 304.169 51.5428 304.526 51.4334C304.884 51.324 305.197 51.1024 305.419 50.8015C305.641 50.5007 305.76 50.1363 305.759 49.7624V1.92216C305.759 1.45977 305.943 1.01631 306.27 0.689355C306.596 0.362395 307.04 0.178711 307.502 0.178711L333.086 0.178711C333.548 0.178711 333.992 0.362395 334.318 0.689355C334.645 1.01631 334.829 1.45977 334.829 1.92216V98.2825C334.829 98.7449 334.645 99.1883 334.318 99.5153C333.992 99.8423 333.548 100.026 333.086 100.026H306.683C306.397 100.026 306.116 99.9566 305.864 99.8229C305.612 99.6891 305.396 99.4954 305.236 99.2588L271.565 49.867C271.357 49.5566 271.054 49.3215 270.702 49.1964C270.35 49.0713 269.966 49.0628 269.609 49.1722C269.251 49.2817 268.939 49.5032 268.717 49.8041C268.495 50.105 268.375 50.4693 268.376 50.8433V98.2825C268.376 98.7449 268.192 99.1883 267.866 99.5153C267.539 99.8423 267.096 100.026 266.633 100.026H241.119C240.657 100.026 240.213 99.8423 239.886 99.5153C239.56 99.1883 239.376 98.7449 239.376 98.2825V1.92216C239.376 1.45977 239.56 1.01631 239.886 0.689355C240.213 0.362395 240.657 0.178711 241.119 0.178711Z" fill="#73BB3A"/>
<path d="M358.252 0.178711H385.666C386.128 0.178711 386.571 0.362395 386.898 0.689355C387.225 1.01631 387.409 1.45977 387.409 1.92216V98.2825C387.409 98.7449 387.225 99.1883 386.898 99.5153C386.571 99.8423 386.128 100.026 385.666 100.026H358.252C357.789 100.026 357.346 99.8423 357.019 99.5153C356.692 99.1883 356.509 98.7449 356.509 98.2825V1.92216C356.509 1.45977 356.692 1.01631 357.019 0.689355C357.346 0.362395 357.789 0.178711 358.252 0.178711Z" fill="#73BB3A"/>
<path d="M404.297 0.178711H494.556C495.018 0.178711 495.461 0.362395 495.788 0.689355C496.115 1.01631 496.299 1.45977 496.299 1.92216V23.0876C496.299 23.55 496.115 23.9935 495.788 24.3204C495.461 24.6474 495.018 24.8311 494.556 24.8311H466.671C466.209 24.8311 465.766 25.0147 465.439 25.3417C465.112 25.6687 464.928 26.1121 464.928 26.5745V98.2825C464.928 98.7449 464.745 99.1883 464.418 99.5153C464.091 99.8423 463.648 100.026 463.186 100.026H435.824C435.361 100.026 434.918 99.8423 434.591 99.5153C434.264 99.1883 434.081 98.7449 434.081 98.2825V26.5745C434.081 26.1121 433.897 25.6687 433.57 25.3417C433.244 25.0147 432.8 24.8311 432.338 24.8311H404.297C403.834 24.8311 403.391 24.6474 403.064 24.3204C402.737 23.9935 402.554 23.55 402.554 23.0876V1.92216C402.554 1.45977 402.737 1.01631 403.064 0.689355C403.391 0.362395 403.834 0.178711 404.297 0.178711Z" fill="#73BB3A"/>
<path d="M500.969 110.504H570.577V117.478H500.969C500.507 117.478 500.064 117.294 499.737 116.967C499.41 116.64 499.227 116.197 499.227 115.734V112.247C499.227 111.785 499.41 111.342 499.737 111.015C500.064 110.688 500.507 110.504 500.969 110.504Z" fill="#73BB3A"/>
<path d="M590.044 110.504H659.756C660.218 110.504 660.661 110.688 660.988 111.015C661.315 111.342 661.499 111.785 661.499 112.247V115.734C661.499 116.197 661.315 116.64 660.988 116.967C660.661 117.294 660.218 117.478 659.756 117.478H590.044V110.504Z" fill="#73BB3A"/>
<path d="M2.72131 110.504H72.3286V117.478H2.72131C2.25909 117.478 1.81581 117.294 1.48897 116.967C1.16213 116.64 0.978516 116.197 0.978516 115.734V112.247C0.978516 111.785 1.16213 111.342 1.48897 111.015C1.81581 110.688 2.25909 110.504 2.72131 110.504Z" fill="#73BB3A"/>
<path d="M91.8301 110.504H161.42C161.882 110.504 162.325 110.688 162.652 111.015C162.979 111.342 163.163 111.785 163.163 112.247V115.734C163.163 116.197 162.979 116.64 162.652 116.967C162.325 117.294 161.882 117.478 161.42 117.478H91.8301V110.504Z" fill="#73BB3A"/>
</g>
<defs>
<filter id="filter0_f_384_134" x="-97" y="-58.1139" width="857" height="234.459" filterUnits="userSpaceOnUse" color-interpolation-filters="sRGB">
<feFlood flood-opacity="0" result="BackgroundImageFix"/>
<feBlend mode="normal" in="SourceGraphic" in2="BackgroundImageFix" result="shape"/>
<feGaussianBlur stdDeviation="25" result="effect1_foregroundBlur_384_134"/>
</filter>
<clipPath id="clip0_384_134">
<rect width="660.45" height="117.282" fill="white" transform="translate(0.978516 0.178711)"/>
</clipPath>
<clipPath id="clip1_384_134">
<rect width="757" height="134.459" fill="white" transform="translate(-47 -8.11389)"/>
</clipPath>
</defs>
</svg>
